<svg viewBox="0 0 600 512" xmlns="http://www.w3.org/2000/svg">
  <style type="text/css">
    .hands       { fill:   #FFDC8C }
    .sun-smile   { stroke: #FFDC8C }
    .sun         { fill:   #FFC864 }
    .shades,
    .pupils      { fill:   #4D4D4D }
    .eyes        { fill:   white   }
    .cloud-smile { stroke: #CCC    }
    .cloud       { fill:   #F2F2F2 }
  </style>
  <circle class="sun" clip-rule="evenodd" cx="448" cy="152" fill-rule="evenodd" r="128"/>
  <path class="sun" d="m448.06 302c-5.56 0-11.11-.3-16.54-.9-3.29-.36-5.67-3.33-5.31-6.62s3.33-5.67 6.62-5.31c5 .55 10.11.83 15.18.83h.31c3.31 0 6 2.69 6 6s-2.69 6-6 6zm31.71-3.53c-2.74 0-5.22-1.89-5.85-4.68-.73-3.23 1.3-6.44 4.53-7.17 4.92-1.11 9.84-2.51 14.61-4.17 3.13-1.09 6.55.57 7.63 3.7s-.57 6.55-3.7 7.63c-5.19 1.8-10.54 3.32-15.89 4.53-.45.11-.89.16-1.33.16zm-78.51-4.25c-.65 0-1.31-.11-1.95-.33-5.19-1.79-10.34-3.88-15.31-6.24-3-1.42-4.27-5-2.85-7.99 1.42-3 5-4.27 7.99-2.85 4.57 2.16 9.3 4.09 14.08 5.74 3.13 1.08 4.8 4.49 3.72 7.63-.86 2.47-3.19 4.04-5.68 4.04zm122.36-13.71c-2.01 0-3.97-1.01-5.11-2.84-1.75-2.82-.88-6.52 1.94-8.26 4.29-2.66 8.49-5.59 12.46-8.7 2.61-2.04 6.38-1.58 8.42 1.03s1.58 6.38-1.03 8.42c-4.32 3.38-8.87 6.56-13.54 9.45-.97.61-2.06.9-3.14.9zm-164.02-8.91c-1.29 0-2.59-.41-3.69-1.27-4.32-3.37-8.51-7.02-12.45-10.85-2.38-2.31-2.43-6.11-.12-8.48 2.31-2.38 6.11-2.43 8.48-.12 3.62 3.53 7.48 6.89 11.46 9.99 2.61 2.04 3.08 5.81 1.04 8.42-1.16 1.52-2.93 2.31-4.72 2.31zm199.67-22.3c-1.34 0-2.69-.45-3.81-1.37-2.56-2.1-2.93-5.89-.82-8.45 3.21-3.9 6.24-8.03 9-12.25 1.81-2.78 5.53-3.55 8.3-1.74s3.56 5.53 1.74 8.3c-3 4.59-6.29 9.07-9.78 13.31-1.18 1.45-2.89 2.2-4.63 2.2zm-231.77-12.54c-1.96 0-3.87-.95-5.02-2.71-3.01-4.59-5.8-9.4-8.28-14.29-1.5-2.95-.32-6.57 2.63-8.07s6.57-.33 8.07 2.63c2.29 4.5 4.85 8.92 7.62 13.14 1.82 2.77 1.04 6.49-1.73 8.31-1.02.67-2.16.99-3.29.99zm255.46-28.51c-.7 0-1.41-.12-2.1-.38-3.1-1.16-4.68-4.62-3.52-7.72 1.77-4.73 3.29-9.62 4.52-14.51.81-3.21 4.07-5.16 7.28-4.35s5.16 4.07 4.35 7.28c-1.34 5.32-2.99 10.63-4.91 15.78-.9 2.41-3.19 3.9-5.62 3.9zm-274.56-14.85c-2.68 0-5.12-1.81-5.81-4.53-1.35-5.31-2.41-10.77-3.17-16.21-.45-3.28 1.84-6.31 5.12-6.77s6.31 1.84 6.77 5.12c.69 5.01 1.67 10.02 2.91 14.91.82 3.21-1.13 6.48-4.34 7.29-.5.13-.99.19-1.48.19zm283.56-31.67c-.05 0-.11 0-.16 0-3.31-.09-5.93-2.84-5.84-6.15.03-1.19.05-2.38.05-3.58 0-3.87-.16-7.78-.48-11.62-.28-3.3 2.18-6.2 5.48-6.48 3.29-.27 6.2 2.18 6.48 5.48.35 4.17.53 8.42.53 12.62 0 1.3-.02 2.6-.05 3.89-.1 3.26-2.77 5.84-6.01 5.84zm-287.47-15.54c-.16 0-.33-.01-.5-.02-3.3-.27-5.76-3.17-5.49-6.47.45-5.48 1.21-10.99 2.25-16.37.63-3.25 3.79-5.37 7.03-4.74 3.25.63 5.38 3.78 4.75 7.03-.96 4.94-1.66 10.01-2.07 15.05-.26 3.14-2.88 5.52-5.97 5.52zm280.89-31.38c-2.55 0-4.91-1.64-5.72-4.2-1.51-4.81-3.32-9.59-5.36-14.21-1.34-3.03.03-6.57 3.06-7.91s6.57.03 7.91 3.06c2.22 5.03 4.19 10.23 5.83 15.46 1 3.16-.76 6.53-3.92 7.53-.59.18-1.2.27-1.8.27zm-269.29-14.56c-.81 0-1.63-.16-2.41-.51-3.03-1.33-4.41-4.87-3.08-7.91 2.21-5.03 4.72-9.99 7.48-14.74 1.66-2.87 5.33-3.85 8.2-2.19s3.85 5.33 2.19 8.2c-2.53 4.37-4.84 8.93-6.88 13.55-.99 2.26-3.19 3.6-5.5 3.6zm247.79-27.65c-1.84 0-3.65-.84-4.83-2.43-3-4.06-6.26-8-9.69-11.71-2.25-2.43-2.1-6.23.34-8.48 2.43-2.25 6.23-2.1 8.48.34 3.72 4.03 7.26 8.31 10.53 12.72 1.97 2.67 1.41 6.42-1.26 8.39-1.08.79-2.33 1.17-3.57 1.17zm-221.84-12.01c-1.45 0-2.91-.52-4.06-1.58-2.44-2.24-2.6-6.04-.35-8.48 3.72-4.04 7.7-7.92 11.83-11.52 2.5-2.18 6.29-1.92 8.47.57 2.18 2.5 1.92 6.29-.57 8.47-3.8 3.32-7.47 6.89-10.89 10.61-1.2 1.28-2.81 1.93-4.43 1.93zm187.83-20.99c-1.18 0-2.37-.35-3.42-1.07-4.15-2.88-8.51-5.56-12.95-7.96-2.91-1.58-4-5.22-2.42-8.13s5.22-3.99 8.13-2.42c4.83 2.61 9.56 5.53 14.07 8.66 2.72 1.89 3.4 5.63 1.51 8.35-1.15 1.67-3.02 2.57-4.92 2.57zm-150.49-8.17c-2.13 0-4.19-1.13-5.28-3.13-1.58-2.91-.51-6.55 2.4-8.14 4.82-2.63 9.84-5.01 14.92-7.08 3.07-1.25 6.57.22 7.82 3.28 1.25 3.07-.22 6.57-3.28 7.82-4.67 1.91-9.28 4.1-13.72 6.51-.9.5-1.89.74-2.86.74zm107.64-12.06c-.54 0-1.09-.07-1.63-.23-4.86-1.37-9.85-2.48-14.83-3.3-3.27-.54-5.48-3.63-4.94-6.9s3.62-5.48 6.9-4.94c5.42.9 10.84 2.1 16.13 3.59 3.19.9 5.05 4.21 4.15 7.4-.75 2.65-3.16 4.38-5.78 4.38zm-62.87-3.4c-2.88 0-5.42-2.08-5.91-5.01-.55-3.27 1.66-6.36 4.93-6.91 5.4-.9 10.93-1.52 16.42-1.82 3.32-.19 6.14 2.35 6.32 5.66s-2.35 6.14-5.66 6.32c-5.05.28-10.13.84-15.1 1.68-.34.06-.67.08-1 .08z"/>
  <g class="detail shades" clip-rule="evenodd">
    <path d="m528 124h-160c-2.21 0-4-1.79-4-4s1.79-4 4-4h160c2.21 0 4 1.79 4 4s-1.79 4-4 4z"/>
    <path d="m480 152c-17.67 0-32-14.33-32-32 0-8.84 7.16-16 16-16h32c8.84 0 16 7.16 16 16 0 17.67-14.33 32-32 32z" fill-rule="evenodd"/>
    <path d="m416 152c-17.67 0-32-14.33-32-32 0-8.84 7.16-16 16-16h32c8.84 0 16 7.16 16 16 0 17.67-14.33 32-32 32z" fill-rule="evenodd"/>
  </g>
  <path class="detail sun-smile" d="m493.25 197.25c-24.99 24.99-65.52 24.99-90.51 0" fill="none" stroke-linecap="round" stroke-miterlimit="10" stroke-width="12"/>
  <g class="cloud">
    <path d="m384 472h-256c-70.69 0-128-57.31-128-128 0-70.69 57.31-128 128-128h256c70.69 0 128 57.31 128 128 0 70.69-57.31 128-128 128z" fill-rule="evenodd"/>
    <circle cx="256" cy="216" fill-rule="evenodd" r="128"/>
  </g>
  <path class="detail cloud-smile" d="m288 344c0 17.67-14.33 32-32 32s-32-14.33-32-32" fill="none" stroke-linecap="round" stroke-miterlimit="10" stroke-width="12"/>
  <g class="detail hands">
    <circle cx="320" cy="120" fill-rule="evenodd" r="32"/>
    <circle cx="512" cy="280" fill-rule="evenodd" r="32"/>
  </g>
  <g class="detail eyes">
    <circle cx="192" cy="280" fill-rule="evenodd" r="32"/>
    <circle cx="320" cy="280" fill-rule="evenodd" r="32"/>
  </g>
  <g class="detail pupils">
    <circle cx="192" cy="280" fill-rule="evenodd" r="16"/>
    <circle cx="320" cy="280" fill-rule="evenodd" r="16"/>
  </g>
</svg>
