<svg viewBox="0 0 512 640" xmlns="http://www.w3.org/2000/svg">
  <style type="text/css">
    #hand                { fill:   #E6E6E6 }
    #watering-can-detail { fill:   #FFA0B4 }
    #watering-can        { fill:   #FFBEC8 }
    .eye                 { stroke: #4D4D4D }
    .cloud               { fill:   #F2F2F2 }
    .rain                { fill:   #D2E6F0 }
  </style>
  <g clip-rule="evenodd">
    <g class ="cloud" fill-rule="evenodd">
      <path d="m384 384h-256c-70.7 0-128-57.3-128-128 0-70.7 57.3-128 128-128h256c70.7 0 128 57.3 128 128 0 70.7-57.3 128-128 128z"/>
      <circle cx="256" cy="128" r="128"/>
    </g>
    <g class="detail eye" fill="none" stroke-linecap="round" stroke-miterlimit="10" stroke-width="12">
      <path d="m224 160c0 17.7-14.3 32-32 32s-32-14.3-32-32"/>
      <path d="m352 160c0 17.7-14.3 32-32 32s-32-14.3-32-32"/>
    </g>
    <g class="rain" fill-rule="evenodd">
      <path d="m118.6 502.6c-12.5 12.5-32.8 12.5-45.3 0-12.5-12.5-12.5-32.8 0-45.3l22.7-22.6 22.6 22.6c12.5 12.6 12.5 32.8 0 45.3z"/>
      <path d="m214.6 502.6c-12.5 12.5-32.8 12.5-45.3 0-12.5-12.5-12.5-32.8 0-45.3l22.6-22.6 22.6 22.6c12.6 12.6 12.6 32.8.1 45.3z"/>
      <path d="m278.6 598.6c-12.5 12.5-32.8 12.5-45.3 0-12.5-12.5-12.5-32.8 0-45.3l22.6-22.6 22.6 22.6c12.6 12.6 12.6 32.8.1 45.3z"/>
      <path d="m310.6 502.6c-12.5 12.5-32.8 12.5-45.3 0-12.5-12.5-12.5-32.8 0-45.3l22.6-22.6 22.6 22.6c12.6 12.6 12.6 32.8.1 45.3z"/>
      <path d="m374.6 598.6c-12.5 12.5-32.8 12.5-45.3 0-12.5-12.5-12.5-32.8 0-45.3l22.6-22.6 22.6 22.6c12.6 12.6 12.6 32.8.1 45.3z"/>
      <path d="m406.6 502.6c-12.5 12.5-32.8 12.5-45.3 0-12.5-12.5-12.5-32.8 0-45.3l22.6-22.6 22.6 22.6c12.6 12.6 12.6 32.8.1 45.3z"/>
      <path d="m182.6 598.6c-12.5 12.5-32.8 12.5-45.3 0-12.5-12.5-12.5-32.8 0-45.3l22.6-22.6 22.6 22.6c12.6 12.6 12.6 32.8.1 45.3z"/>
    </g>
    <path class="detail" id="watering-can" d="m461.3 224.3c-25-25-65.5-25-90.5 0l-79.2 79.2c-6.2 6.2-6.2 16.4 0 22.6l46.2 46.2h-75.1c-1.4-2.4-3-4.6-5.1-6.6-6-6-14.1-9.4-22.6-9.4v32 32c8.5 0 16.6-3.4 22.6-9.4 2-2 3.7-4.3 5.1-6.6h102.4c4.4 0 8.4-1.8 11.3-4.7l84.8-84.8c25.1-25 25.1-65.5.1-90.5zm-67.9 22.7c12.5-12.5 32.8-12.5 45.3 0s12.5 32.8 0 45.3z"/>
    <circle class="detail" id="hand" cx="416.1" cy="224.3" r="32"/>
  </g>
  <g class="detail" id="watering-can-detail">
    <path d="m235.1 428.3c-3.3 0-6-2.7-6-6v-67.9c0-3.3 2.7-6 6-6s6 2.7 6 6v67.9c0 3.3-2.7 6-6 6z"/>
    <path d="m325.6 269.6-22.6 22.6c12.4 12.4 32.8 12.4 45.3 0 12.4-12.4 12.4-32.8 0-45.3z" fill-rule="evenodd" clip-rule="evenodd"/>
  </g>
</svg>
