<svg viewBox="0 0 512 256" xmlns="http://www.w3.org/2000/svg">
  <style type="text/css">
		#inner  { fill: #D2E6F0 }
		#second { fill: #FFC864 }
		#third  { fill: #FFDC8C }
		#outer  { fill: #FFA0B4 }
	</style>
  <path id="outer" d="m49.59 168.82c11.28-26.67 27.44-50.63 48.02-71.21s44.54-36.74 71.21-48.02c27.59-11.67 56.93-17.59 87.18-17.59s59.59 5.92 87.18 17.59c26.67 11.28 50.63 27.44 71.21 48.02s36.74 44.54 48.02 71.21c11.67 27.59 17.59 56.93 17.59 87.18h32c0-141.38-114.62-256-256-256s-256 114.62-256 256h32c0-30.25 5.92-59.59 17.59-87.18z"/>
  <path id="second" d="m120.24 120.24c36.26-36.27 84.47-56.24 135.76-56.24s99.5 19.97 135.76 56.24c36.27 36.26 56.24 84.47 56.24 135.76h32c0-30.25-5.92-59.59-17.59-87.18-11.28-26.67-27.44-50.63-48.02-71.21s-44.54-36.74-71.21-48.02c-27.59-11.67-56.93-17.59-87.18-17.59s-59.59 5.92-87.18 17.59c-26.67 11.28-50.63 27.44-71.21 48.02s-36.74 44.54-48.02 71.21c-11.67 27.59-17.59 56.93-17.59 87.18h32c0-51.29 19.97-99.5 56.24-135.76z"/>
  <path id="third" d="m142.86 142.86c30.22-30.22 70.4-46.86 113.14-46.86s82.92 16.64 113.14 46.86 46.86 70.4 46.86 113.14h32c0-51.29-19.97-99.5-56.24-135.76-36.26-36.27-84.47-56.24-135.76-56.24s-99.5 19.97-135.76 56.24-56.24 84.47-56.24 135.76h32c0-42.74 16.64-82.92 46.86-113.14z"/>
  <path id="inner" d="m165.49 165.49c24.18-24.18 56.32-37.49 90.51-37.49s66.33 13.31 90.51 37.49 37.49 56.32 37.49 90.51h32c0-42.74-16.64-82.92-46.86-113.14s-70.4-46.86-113.14-46.86-82.92 16.64-113.14 46.86-46.86 70.4-46.86 113.14h32c0-34.19 13.31-66.33 37.49-90.51z"/>
</svg>
